<svg width="32" height="32" viewBox="0 0 32 32" fill="none" xmlns="http://www.w3.org/2000/svg">
<path d="M17.2266 3.01331L25.9066 7.69331C26.92 8.23998 26.92 9.79998 25.9066 10.3466L17.2266 15.0267C16.4533 15.44 15.5466 15.44 14.7733 15.0267L6.09331 10.3466C5.07998 9.79998 5.07998 8.23998 6.09331 7.69331L14.7733 3.01331C15.5466 2.59997 16.4533 2.59997 17.2266 3.01331Z" stroke="#7698AA" stroke-width="1.6" stroke-linecap="round" stroke-linejoin="round"/>
<path d="M4.81335 13.5067L12.88 17.5467C13.88 18.0533 14.52 19.08 14.52 20.2V27.8268C14.52 28.9335 13.36 29.6401 12.3734 29.1468L4.30669 25.1067C3.30669 24.6 2.66669 23.5733 2.66669 22.4533V14.8267C2.66669 13.72 3.82669 13.0134 4.81335 13.5067Z" stroke="#7698AA" stroke-width="1.6" stroke-linecap="round" stroke-linejoin="round"/>
<path d="M27.1866 13.5067L19.12 17.5467C18.12 18.0533 17.48 19.08 17.48 20.2V27.8268C17.48 28.9335 18.64 29.6401 19.6266 29.1468L27.6933 25.1067C28.6933 24.6 29.3333 23.5733 29.3333 22.4533V14.8267C29.3333 13.72 28.1733 13.0134 27.1866 13.5067Z" stroke="#7698AA" stroke-width="1.6" stroke-linecap="round" stroke-linejoin="round"/>
</svg>
