<svg width="32" height="32" viewBox="0 0 32 32" fill="none" xmlns="http://www.w3.org/2000/svg">
<path d="M4 29.3333H28" stroke="#7698AA" stroke-width="1.6" stroke-linecap="round" stroke-linejoin="round"/>
<path d="M7.46664 11.1732H5.33333C4.6 11.1732 4 11.7732 4 12.5065V23.9999C4 24.7332 4.6 25.3332 5.33333 25.3332H7.46664C8.19997 25.3332 8.79997 24.7332 8.79997 23.9999V12.5065C8.79997 11.7732 8.19997 11.1732 7.46664 11.1732Z" stroke="#7698AA" stroke-width="1.6" stroke-linecap="round" stroke-linejoin="round"/>
<path d="M17.0665 6.91992H14.9333C14.2 6.91992 13.6 7.51992 13.6 8.25325V23.9999C13.6 24.7332 14.2 25.3332 14.9333 25.3332H17.0665C17.7998 25.3332 18.3998 24.7332 18.3998 23.9999V8.25325C18.3998 7.51992 17.7998 6.91992 17.0665 6.91992Z" stroke="#7698AA" stroke-width="1.6" stroke-linecap="round" stroke-linejoin="round"/>
<path d="M26.6666 2.66667H24.5332C23.7999 2.66667 23.1999 3.26667 23.1999 4V24C23.1999 24.7333 23.7999 25.3333 24.5332 25.3333H26.6666C27.3999 25.3333 27.9999 24.7333 27.9999 24V4C27.9999 3.26667 27.3999 2.66667 26.6666 2.66667Z" stroke="#7698AA" stroke-width="1.6" stroke-linecap="round" stroke-linejoin="round"/>
</svg>
