<svg width="32" height="32" viewBox="0 0 32 32" fill="none" xmlns="http://www.w3.org/2000/svg">
<path d="M9.33335 10.6667H5.33335C3.86669 10.6667 2.66669 9.46667 2.66669 8.00001V5.33334C2.66669 3.86667 3.86669 2.66667 5.33335 2.66667H9.33335C10.8 2.66667 12 3.86667 12 5.33334V8.00001C12 9.46667 10.8 10.6667 9.33335 10.6667Z" stroke="#7698AA" stroke-width="1.5" stroke-linecap="round" stroke-linejoin="round"/>
<path d="M27.7333 9.33333H22.9333C22.0533 9.33333 21.3333 8.61332 21.3333 7.73332V5.60001C21.3333 4.72001 22.0533 4 22.9333 4H27.7333C28.6133 4 29.3333 4.72001 29.3333 5.60001V7.73332C29.3333 8.61332 28.6133 9.33333 27.7333 9.33333Z" stroke="#7698AA" stroke-width="1.5" stroke-linecap="round" stroke-linejoin="round"/>
<path d="M27.7333 19.3333H22.9333C22.0533 19.3333 21.3333 18.6133 21.3333 17.7333V15.6C21.3333 14.72 22.0533 14 22.9333 14H27.7333C28.6133 14 29.3333 14.72 29.3333 15.6V17.7333C29.3333 18.6133 28.6133 19.3333 27.7333 19.3333Z" stroke="#7698AA" stroke-width="1.5" stroke-linecap="round" stroke-linejoin="round"/>
<path d="M12 6.66667H21.3333" stroke="#7698AA" stroke-width="1.5" stroke-miterlimit="10" stroke-linecap="round" stroke-linejoin="round"/>
<path d="M16.6667 6.66667V24C16.6667 25.4667 17.8667 26.6667 19.3334 26.6667H21.3334" stroke="#7698AA" stroke-width="1.5" stroke-miterlimit="10" stroke-linecap="round" stroke-linejoin="round"/>
<path d="M16.6667 16.6667H21.3334" stroke="#7698AA" stroke-width="1.5" stroke-miterlimit="10" stroke-linecap="round" stroke-linejoin="round"/>
<path d="M27.7333 29.3333H22.9333C22.0533 29.3333 21.3333 28.6133 21.3333 27.7333V25.6C21.3333 24.72 22.0533 24 22.9333 24H27.7333C28.6133 24 29.3333 24.72 29.3333 25.6V27.7333C29.3333 28.6133 28.6133 29.3333 27.7333 29.3333Z" stroke="#7698AA" stroke-width="1.5" stroke-linecap="round" stroke-linejoin="round"/>
</svg>
