<svg width="32" height="33" viewBox="0 0 32 33" fill="none" xmlns="http://www.w3.org/2000/svg">
<path d="M29.8656 27.25L16.8656 4.75C16.6719 4.41563 16.3375 4.25 16 4.25C15.6625 4.25 15.325 4.41563 15.1344 4.75L2.13437 27.25C1.75 27.9187 2.23125 28.75 3 28.75H29C29.7687 28.75 30.25 27.9187 29.8656 27.25ZM15 13.5C15 13.3625 15.1125 13.25 15.25 13.25H16.75C16.8875 13.25 17 13.3625 17 13.5V19.25C17 19.3875 16.8875 19.5 16.75 19.5H15.25C15.1125 19.5 15 19.3875 15 19.25V13.5ZM16 24.5C15.6075 24.492 15.2337 24.3304 14.959 24.05C14.6842 23.7696 14.5303 23.3926 14.5303 23C14.5303 22.6074 14.6842 22.2304 14.959 21.95C15.2337 21.6696 15.6075 21.508 16 21.5C16.3925 21.508 16.7663 21.6696 17.041 21.95C17.3158 22.2304 17.4697 22.6074 17.4697 23C17.4697 23.3926 17.3158 23.7696 17.041 24.05C16.7663 24.3304 16.3925 24.492 16 24.5Z" fill="#FF2444"/>
</svg>
