<svg width="32" height="32" viewBox="0 0 32 32" fill="none" xmlns="http://www.w3.org/2000/svg">
<path d="M19.0934 25.4267C19.0934 26.24 18.56 27.3067 17.88 27.72L16.0001 28.9333C14.2534 30.0133 11.8267 28.8 11.8267 26.64V19.5067C11.8267 18.56 11.2934 17.3467 10.7467 16.68L5.62668 11.2933C4.94668 10.6133 4.41339 9.41335 4.41339 8.60002V5.50667C4.41339 3.89334 5.62675 2.68002 7.10675 2.68002H24.8933C26.3733 2.68002 27.5868 3.89334 27.5868 5.37334V8.33334C27.5868 9.41334 26.9068 10.76 26.2401 11.4267" stroke="#7698AA" stroke-width="1.6" stroke-miterlimit="10" stroke-linecap="round" stroke-linejoin="round"/>
<path d="M21.4266 22.0267C23.783 22.0267 25.6933 20.1164 25.6933 17.76C25.6933 15.4036 23.783 13.4933 21.4266 13.4933C19.0702 13.4933 17.16 15.4036 17.16 17.76C17.16 20.1164 19.0702 22.0267 21.4266 22.0267Z" stroke="#7698AA" stroke-width="1.6" stroke-linecap="round" stroke-linejoin="round"/>
<path d="M26.4933 22.8267L25.16 21.4933" stroke="#7698AA" stroke-width="1.6" stroke-linecap="round" stroke-linejoin="round"/>
</svg>
