<svg width="32" height="33" viewBox="0 0 32 33" fill="none" xmlns="http://www.w3.org/2000/svg">
<path d="M16 2.5C8.26875 2.5 2 8.76875 2 16.5C2 24.2312 8.26875 30.5 16 30.5C23.7312 30.5 30 24.2312 30 16.5C30 8.76875 23.7312 2.5 16 2.5ZM17 23.25C17 23.3875 16.8875 23.5 16.75 23.5H15.25C15.1125 23.5 15 23.3875 15 23.25V14.75C15 14.6125 15.1125 14.5 15.25 14.5H16.75C16.8875 14.5 17 14.6125 17 14.75V23.25ZM16 12.5C15.6075 12.492 15.2337 12.3304 14.959 12.05C14.6842 11.7696 14.5303 11.3926 14.5303 11C14.5303 10.6074 14.6842 10.2304 14.959 9.95C15.2337 9.66957 15.6075 9.50801 16 9.5C16.3925 9.50801 16.7663 9.66957 17.041 9.95C17.3158 10.2304 17.4697 10.6074 17.4697 11C17.4697 11.3926 17.3158 11.7696 17.041 12.05C16.7663 12.3304 16.3925 12.492 16 12.5Z" fill="#00A3E7"/>
</svg>
