<svg width="28" height="29" viewBox="0 0 28 29" fill="none" xmlns="http://www.w3.org/2000/svg">
<path d="M14.0233 3.89499C10.1616 3.89499 7.02331 7.03332 7.02331 10.895V14.2667C7.02331 14.9783 6.71998 16.0633 6.35831 16.67L5.01665 18.8983C4.18831 20.275 4.75998 21.8033 6.27665 22.3167C11.305 23.9967 16.73 23.9967 21.7583 22.3167C23.17 21.85 23.7883 20.1817 23.0183 18.8983L21.6766 16.67C21.3266 16.0633 21.0233 14.9783 21.0233 14.2667V10.895C21.0233 7.04499 17.8733 3.89499 14.0233 3.89499Z" stroke="#5D676F" stroke-width="1.6" stroke-miterlimit="10" stroke-linecap="round"/>
<path d="M16.1817 4.23334C15.82 4.12834 15.4467 4.04667 15.0617 4C13.9417 3.86 12.8683 3.94167 11.865 4.23334C12.2033 3.37 13.0433 2.76334 14.0233 2.76334C15.0033 2.76334 15.8433 3.37 16.1817 4.23334Z" stroke="#5D676F" stroke-width="1.6" stroke-miterlimit="10" stroke-linecap="round" stroke-linejoin="round"/>
<path d="M17.5233 22.7367C17.5233 24.6617 15.9483 26.2367 14.0233 26.2367C13.0666 26.2367 12.18 25.84 11.55 25.21C10.92 24.58 10.5233 23.6933 10.5233 22.7367" stroke="#5D676F" stroke-width="1.6" stroke-miterlimit="10"/>
</svg>
