<svg width="32" height="32" viewBox="0 0 32 32" fill="none" xmlns="http://www.w3.org/2000/svg">
<path d="M16.16 17.04C16.0667 17.0267 15.9467 17.0267 15.84 17.04C13.4934 16.96 11.6266 15.04 11.6266 12.68C11.6266 10.2666 13.5734 8.30664 16 8.30664C18.4134 8.30664 20.3734 10.2666 20.3734 12.68C20.36 15.04 18.5067 16.96 16.16 17.04Z" stroke="#7698AA" stroke-width="1.5" stroke-linecap="round" stroke-linejoin="round"/>
<path d="M24.9867 25.8401C22.6134 28.0135 19.4667 29.3335 16 29.3335C12.5334 29.3335 9.3867 28.0135 7.01337 25.8401C7.1467 24.5868 7.9467 23.3601 9.37337 22.4001C13.0267 19.9735 19 19.9735 22.6267 22.4001C24.0534 23.3601 24.8534 24.5868 24.9867 25.8401Z" stroke="#7698AA" stroke-width="1.5" stroke-linecap="round" stroke-linejoin="round"/>
<path d="M16 29.3333C23.3638 29.3333 29.3334 23.3637 29.3334 16C29.3334 8.6362 23.3638 2.66666 16 2.66666C8.63622 2.66666 2.66669 8.6362 2.66669 16C2.66669 23.3637 8.63622 29.3333 16 29.3333Z" stroke="#7698AA" stroke-width="1.5" stroke-linecap="round" stroke-linejoin="round"/>
</svg>
