<svg width="32" height="32" viewBox="0 0 32 32" fill="none" xmlns="http://www.w3.org/2000/svg">
<path d="M16 20C18.2092 20 20 18.2092 20 16C20 13.7908 18.2092 12 16 12C13.7908 12 12 13.7908 12 16C12 18.2092 13.7908 20 16 20Z" stroke="#7698AA" stroke-width="1.5" stroke-miterlimit="10" stroke-linecap="round" stroke-linejoin="round"/>
<path d="M2.66669 17.1732V14.8265C2.66669 13.4399 3.80002 12.2932 5.20002 12.2932C7.61335 12.2932 8.60002 10.5866 7.38669 8.49324C6.69335 7.29324 7.10669 5.73324 8.32002 5.0399L10.6267 3.71991C11.68 3.09324 13.04 3.46657 13.6667 4.51991L13.8134 4.77324C15.0134 6.86657 16.9867 6.86657 18.2 4.77324L18.3467 4.51991C18.9734 3.46657 20.3334 3.09324 21.3867 3.71991L23.6934 5.0399C24.9067 5.73324 25.32 7.29324 24.6267 8.49324C23.4134 10.5866 24.4 12.2932 26.8134 12.2932C28.2 12.2932 29.3467 13.4265 29.3467 14.8265V17.1732C29.3467 18.5599 28.2134 19.7065 26.8134 19.7065C24.4 19.7065 23.4134 21.4132 24.6267 23.5065C25.32 24.7199 24.9067 26.2665 23.6934 26.9599L21.3867 28.2799C20.3334 28.9065 18.9734 28.5332 18.3467 27.4799L18.2 27.2265C17 25.1332 15.0267 25.1332 13.8134 27.2265L13.6667 27.4799C13.04 28.5332 11.68 28.9065 10.6267 28.2799L8.32002 26.9599C7.10669 26.2665 6.69335 24.7065 7.38669 23.5065C8.60002 21.4132 7.61335 19.7065 5.20002 19.7065C3.80002 19.7065 2.66669 18.5599 2.66669 17.1732Z" stroke="#7698AA" stroke-width="1.6" stroke-miterlimit="10" stroke-linecap="round" stroke-linejoin="round"/>
</svg>
