<svg width="32" height="32" viewBox="0 0 32 32" fill="none" xmlns="http://www.w3.org/2000/svg">
<path d="M12 29.3333H20C26.6667 29.3333 29.3334 26.6667 29.3334 20V12C29.3334 5.33334 26.6667 2.66667 20 2.66667H12C5.33335 2.66667 2.66669 5.33334 2.66669 12V20C2.66669 26.6667 5.33335 29.3333 12 29.3333Z" stroke="#7698AA" stroke-width="1.5" stroke-linecap="round" stroke-linejoin="round"/>
<path d="M20.7599 24.6668V19.4668" stroke="#7698AA" stroke-width="1.5" stroke-miterlimit="10" stroke-linecap="round" stroke-linejoin="round"/>
<path d="M20.7599 9.93333V7.33333" stroke="#7698AA" stroke-width="1.5" stroke-miterlimit="10" stroke-linecap="round" stroke-linejoin="round"/>
<path d="M20.76 16.8667C22.6745 16.8667 24.2267 15.3145 24.2267 13.4C24.2267 11.4854 22.6745 9.93327 20.76 9.93327C18.8453 9.93327 17.2933 11.4854 17.2933 13.4C17.2933 15.3145 18.8453 16.8667 20.76 16.8667Z" stroke="#7698AA" stroke-width="1.5" stroke-miterlimit="10" stroke-linecap="round" stroke-linejoin="round"/>
<path d="M11.2401 24.6667V22.0667" stroke="#7698AA" stroke-width="1.5" stroke-miterlimit="10" stroke-linecap="round" stroke-linejoin="round"/>
<path d="M11.2401 12.5333V7.33333" stroke="#7698AA" stroke-width="1.5" stroke-miterlimit="10" stroke-linecap="round" stroke-linejoin="round"/>
<path d="M11.2399 22.0668C13.1545 22.0668 14.7066 20.5147 14.7066 18.6001C14.7066 16.6856 13.1545 15.1335 11.2399 15.1335C9.32533 15.1335 7.77325 16.6856 7.77325 18.6001C7.77325 20.5147 9.32533 22.0668 11.2399 22.0668Z" stroke="#7698AA" stroke-width="1.5" stroke-miterlimit="10" stroke-linecap="round" stroke-linejoin="round"/>
</svg>
