<svg width="28" height="28" viewBox="0 0 28 28" fill="none" xmlns="http://www.w3.org/2000/svg">
<path d="M14 28C21.7319 28 28 21.7319 28 14C28 6.268 21.7319 0 14 0C6.268 0 0 6.268 0 14C0 21.7319 6.268 28 14 28Z" fill="#E2E6ED"/>
<path d="M9.31439 15.5988H11.7504V21.2688C11.7504 22.1088 12.7864 22.5008 13.3464 21.8708L19.3104 15.0948C19.8284 14.5068 19.4084 13.5828 18.6244 13.5828H16.1884V7.91273C16.1884 7.07273 15.1524 6.68073 14.5924 7.31073L8.62839 14.0868C8.11039 14.6748 8.53039 15.5988 9.31439 15.5988Z" fill="#00A3E7"/>
</svg>
